<svg width="24" height="24" viewBox="0 0 24 24" fill="none" xmlns="http://www.w3.org/2000/svg">
<path fill-rule="evenodd" clip-rule="evenodd" d="M0.100098 3.99998C0.100098 3.50292 0.503041 3.09998 1.0001 3.09998H3.0001C3.40595 3.09998 3.7616 3.37161 3.86839 3.76317L4.51773 6.1441L19.0592 7.10192C19.5323 7.13308 19.9001 7.52588 19.9001 7.99998V14C19.9001 14.4703 19.538 14.8613 19.0691 14.8973L6.06912 15.8973C5.6387 15.9304 5.2454 15.6533 5.13181 15.2368L2.94999 7.23678L2.31268 4.89998H1.0001C0.503041 4.89998 0.100098 4.49703 0.100098 3.99998ZM7.87327 8.78172C7.75272 8.2995 7.26408 8.00632 6.78186 8.12687C6.29965 8.24743 6.00646 8.73607 6.12702 9.21828L7.12702 13.2183C7.24757 13.7005 7.73621 13.9937 8.21843 13.8731C8.70064 13.7526 8.99383 13.2639 8.87327 12.7817L7.87327 8.78172ZM11.3729 8.35902C11.8649 8.28873 12.3208 8.63064 12.3911 9.1227L12.8911 12.6227C12.9614 13.1148 12.6195 13.5706 12.1274 13.6409C11.6354 13.7112 11.1795 13.3693 11.1092 12.8773L10.6092 9.37725C10.5389 8.88519 10.8808 8.42932 11.3729 8.35902ZM16.9001 9.50002C16.9001 9.00297 16.4972 8.60002 16.0001 8.60002C15.5031 8.60002 15.1001 9.00297 15.1001 9.50002V12.5C15.1001 12.9971 15.5031 13.4 16.0001 13.4C16.4972 13.4 16.9001 12.9971 16.9001 12.5V9.50002ZM10.0002 19C10.0002 20.1046 9.10481 21 8.00024 21C6.89567 21 6.00024 20.1046 6.00024 19C6.00024 17.8955 6.89567 17 8.00024 17C9.10481 17 10.0002 17.8955 10.0002 19ZM16.0002 21C17.1048 21 18.0002 20.1046 18.0002 19C18.0002 17.8955 17.1048 17 16.0002 17C14.8956 17 14.0002 17.8955 14.0002 19C14.0002 20.1046 14.8956 21 16.0002 21Z" fill="#525252"/>
</svg>
