<svg width="21" height="19" viewBox="0 0 21 19" fill="none" xmlns="http://www.w3.org/2000/svg">
<path fill-rule="evenodd" clip-rule="evenodd" d="M0.261719 1.30332C0.261719 0.806264 0.664662 0.40332 1.16172 0.40332H3.16172C3.56757 0.40332 3.92322 0.674959 4.03001 1.06651L4.67935 3.44744L19.2209 4.40527C19.6939 4.43643 20.0617 4.82923 20.0617 5.30332V11.3033C20.0617 11.7736 19.6996 12.1646 19.2307 12.2007L6.23075 13.2007C5.80032 13.2338 5.40702 12.9566 5.29343 12.5401L3.11161 4.54013L2.4743 2.20332H1.16172C0.664662 2.20332 0.261719 1.80038 0.261719 1.30332ZM8.0349 6.08506C7.91434 5.60285 7.4257 5.30966 6.94349 5.43022C6.46127 5.55077 6.16809 6.03941 6.28864 6.52163L7.28864 10.5216C7.40919 11.0038 7.89783 11.297 8.38005 11.1765C8.86226 11.0559 9.15545 10.5673 9.0349 10.0851L8.0349 6.08506ZM11.5345 5.66237C12.0265 5.59207 12.4824 5.93398 12.5527 6.42604L13.0527 9.92604C13.123 10.4181 12.7811 10.874 12.289 10.9443C11.797 11.0146 11.3411 10.6727 11.2708 10.1806L10.7708 6.6806C10.7005 6.18854 11.0424 5.73266 11.5345 5.66237ZM17.0618 6.80337C17.0618 6.30631 16.6588 5.90337 16.1618 5.90337C15.6647 5.90337 15.2618 6.30631 15.2618 6.80337V9.80337C15.2618 10.3004 15.6647 10.7034 16.1618 10.7034C16.6588 10.7034 17.0618 10.3004 17.0618 9.80337V6.80337ZM10.1619 16.3034C10.1619 17.4079 9.26643 18.3034 8.16187 18.3034C7.0573 18.3034 6.16187 17.4079 6.16187 16.3034C6.16187 15.1988 7.0573 14.3034 8.16187 14.3034C9.26643 14.3034 10.1619 15.1988 10.1619 16.3034ZM16.1618 18.3034C17.2664 18.3034 18.1618 17.4079 18.1618 16.3034C18.1618 15.1988 17.2664 14.3034 16.1618 14.3034C15.0572 14.3034 14.1618 15.1988 14.1618 16.3034C14.1618 17.4079 15.0572 18.3034 16.1618 18.3034Z" fill="#5C0790"/>
</svg>
