<svg width="16" height="20" viewBox="0 0 16 20" fill="none" xmlns="http://www.w3.org/2000/svg">
<rect width="16" height="20" rx="8" fill="#FF3A3A"/>
<path d="M6.6875 8.76465H7.69922C8.20964 8.76009 8.61296 8.62793 8.90918 8.36816C9.20996 8.1084 9.36035 7.73242 9.36035 7.24023C9.36035 6.76628 9.23503 6.39941 8.98438 6.13965C8.73828 5.87533 8.36003 5.74316 7.84961 5.74316C7.40299 5.74316 7.03613 5.87305 6.74902 6.13281C6.46191 6.38802 6.31836 6.72298 6.31836 7.1377H4.65723C4.65723 6.62728 4.79167 6.16243 5.06055 5.74316C5.33398 5.32389 5.71224 4.99805 6.19531 4.76562C6.68294 4.52865 7.22754 4.41016 7.8291 4.41016C8.82259 4.41016 9.60189 4.66081 10.167 5.16211C10.7367 5.65885 11.0215 6.35156 11.0215 7.24023C11.0215 7.68685 10.8779 8.1084 10.5908 8.50488C10.3083 8.89681 9.94141 9.19303 9.49023 9.39355C10.0371 9.5804 10.4518 9.87435 10.7344 10.2754C11.0215 10.6764 11.165 11.1549 11.165 11.7109C11.165 12.6042 10.8574 13.3151 10.2422 13.8438C9.63151 14.3724 8.82715 14.6367 7.8291 14.6367C6.87207 14.6367 6.08822 14.3815 5.47754 13.8711C4.86686 13.3607 4.56152 12.6816 4.56152 11.834H6.22266C6.22266 12.2715 6.36849 12.627 6.66016 12.9004C6.95638 13.1738 7.35286 13.3105 7.84961 13.3105C8.36458 13.3105 8.77018 13.1738 9.06641 12.9004C9.36263 12.627 9.51074 12.2305 9.51074 11.7109C9.51074 11.1868 9.35579 10.7835 9.0459 10.501C8.736 10.2184 8.27572 10.0771 7.66504 10.0771H6.6875V8.76465Z" fill="white"/>
</svg>
