<svg width="48" height="49" viewBox="0 0 48 49" fill="none" xmlns="http://www.w3.org/2000/svg">
<g clip-path="url(#clip0)">
<path d="M48 24.875C48 11.6188 37.2562 0.875 24 0.875C10.7438 0.875 0 11.6188 0 24.875C0 36.8563 8.775 46.7844 20.25 48.5844V31.8125H14.1562V24.875H20.25V19.5875C20.25 13.5734 23.8313 10.25 29.3156 10.25C31.9406 10.25 34.6875 10.7188 34.6875 10.7188V16.625H31.6594C28.6781 16.625 27.75 18.4766 27.75 20.375V24.875H34.4062L33.3422 31.8125H27.75V48.5844C39.225 46.7844 48 36.8563 48 24.875Z" fill="#1877F2"/>
<path d="M33.3423 31.8125L34.4062 24.875H27.75V20.375C27.75 18.4766 28.6782 16.625 31.6595 16.625H34.6875V10.7188C34.6875 10.7188 31.9406 10.25 29.3156 10.25C23.8313 10.25 20.25 13.5734 20.25 19.5875V24.875H14.1562V31.8125H20.25V48.5844C21.4734 48.7766 22.725 48.875 24 48.875C25.275 48.875 26.5266 48.7766 27.75 48.5844V31.8125H33.3423Z" fill="white"/>
</g>
<defs>
<clipPath id="clip0">
<rect width="48" height="48" fill="white" transform="translate(0 0.875)"/>
</clipPath>
</defs>
</svg>
