<svg width="25" height="25" viewBox="0 0 25 25" fill="none" xmlns="http://www.w3.org/2000/svg">
<rect opacity="0.01" x="0.25" y="0.5" width="24" height="24" fill="white"/>
<path d="M22.25 20.4V11.3261C22.25 10.4721 22.25 10.0452 22.1407 9.65144C22.0439 9.30264 21.8848 8.97424 21.671 8.68212C21.4297 8.35236 21.0945 8.08779 20.4243 7.55865L15.7243 3.84813C14.6617 3.00925 14.1304 2.58981 13.5424 2.42878C13.0237 2.28671 12.4763 2.28671 11.9576 2.42878C11.3696 2.58981 10.8383 3.00925 9.77571 3.84812L5.07571 7.55865C4.40546 8.08779 4.07034 8.35236 3.82902 8.68212C3.61525 8.97424 3.45611 9.30264 3.35929 9.65144C3.25 10.0452 3.25 10.4721 3.25 11.3261V20.4C3.25 20.9601 3.25 21.2401 3.35899 21.454C3.45487 21.6422 3.60785 21.7951 3.79601 21.891C4.00992 22 4.28995 22 4.85 22H7.65C8.21005 22 8.49008 22 8.70399 21.891C8.89215 21.7951 9.04513 21.6422 9.14101 21.454C9.25 21.2401 9.25 20.9601 9.25 20.4V15.1C9.25 14.5399 9.25 14.2599 9.35899 14.046C9.45487 13.8578 9.60785 13.7049 9.79601 13.609C10.0099 13.5 10.2899 13.5 10.85 13.5H14.65C15.2101 13.5 15.4901 13.5 15.704 13.609C15.8922 13.7049 16.0451 13.8578 16.141 14.046C16.25 14.2599 16.25 14.5399 16.25 15.1V20.4C16.25 20.9601 16.25 21.2401 16.359 21.454C16.4549 21.6422 16.6078 21.7951 16.796 21.891C17.0099 22 17.2899 22 17.85 22H20.65C21.2101 22 21.4901 22 21.704 21.891C21.8922 21.7951 22.0451 21.6422 22.141 21.454C22.25 21.2401 22.25 20.9601 22.25 20.4Z" fill="#ADADAD"/>
</svg>
