<svg width="50" height="50" viewBox="0 0 50 50" fill="none" xmlns="http://www.w3.org/2000/svg">
<path d="M49.8497 14.6927C49.728 12.0316 49.3053 10.2142 48.6874 8.62427C48.0598 6.9561 47.0757 5.4451 45.8038 4.19617C44.5553 2.92435 43.0439 1.93977 41.3757 1.31187C39.7854 0.694275 37.9684 0.271988 35.3073 0.151062C32.6412 0.0289917 31.7894 0 25 0C18.2106 0 17.3588 0.0289917 14.6927 0.150299C12.0316 0.271988 10.2146 0.694656 8.62427 1.31264C6.9561 1.94016 5.4451 2.92435 4.19617 4.19617C2.92435 5.44472 1.93977 6.95572 1.31187 8.62389C0.694275 10.2142 0.271988 12.0316 0.151062 14.6923C0.0289917 17.3588 0 18.2102 0 24.9996C0 31.7894 0.0289917 32.6412 0.151062 35.3073C0.272369 37.9681 0.695038 39.7854 1.31302 41.3757C1.94054 43.0435 2.92473 44.5549 4.19655 45.8035C5.4451 47.0753 6.95648 48.0595 8.62465 48.687C10.2146 49.3054 12.0319 49.7276 14.6931 49.8493C17.3595 49.971 18.211 49.9996 25.0004 49.9996C31.7898 49.9996 32.6416 49.971 35.3077 49.8493C37.9688 49.7276 39.7858 49.3054 41.3761 48.687C44.7342 47.3885 47.3888 44.7338 48.6874 41.3757C49.3057 39.7854 49.728 37.9681 49.8497 35.3073C49.971 32.6408 50 31.7894 50 25C50 18.2102 49.971 17.3588 49.8497 14.6927ZM45.3495 35.1025C45.2385 37.5401 44.8311 38.8638 44.4889 39.7446C43.6478 41.9251 41.9247 43.6482 39.7442 44.4893C38.8634 44.8315 37.5397 45.2389 35.1021 45.3499C32.4665 45.4704 31.6757 45.4956 25 45.4956C18.3239 45.4956 17.5335 45.4704 14.8975 45.3499C12.4603 45.2389 11.1366 44.8315 10.2554 44.4893C9.16977 44.0884 8.18748 43.4494 7.38106 42.6189C6.5506 41.8125 5.91164 40.8306 5.51071 39.7446C5.16853 38.8638 4.76112 37.5401 4.65012 35.1025C4.52995 32.4665 4.50439 31.6757 4.50439 25.0004C4.50439 18.3247 4.52995 17.5343 4.65012 14.8979C4.76151 12.4603 5.16853 11.1366 5.51071 10.2558C5.91164 9.16977 6.55098 8.18749 7.38106 7.38106C8.18748 6.5506 9.16977 5.91164 10.2558 5.51109C11.1366 5.16853 12.4603 4.76151 14.8979 4.65012C17.5339 4.52995 18.3247 4.5044 25 4.5044H24.9996C31.675 4.5044 32.4657 4.52995 35.1021 4.6505C37.5397 4.76151 38.863 5.16892 39.7442 5.51109C40.8298 5.91202 41.8121 6.55098 42.6186 7.38106C43.449 8.18749 44.088 9.16977 44.4885 10.2558C44.8311 11.1366 45.2385 12.4603 45.3495 14.8979C45.4697 17.5339 45.4952 18.3247 45.4952 25C45.4952 31.6757 45.47 32.4661 45.3495 35.1025Z" fill="#858585"/>
<path d="M24.9997 12.1621C17.9097 12.1621 12.1621 17.9101 12.1621 25.0001C12.1621 32.0901 17.9097 37.8377 24.9997 37.8377C32.0901 37.8377 37.8377 32.0901 37.8377 25.0001C37.8377 17.9101 32.0901 12.1621 24.9997 12.1621ZM24.9997 33.3333C20.3977 33.3329 16.6665 29.6021 16.6669 24.9997C16.6669 20.3977 20.3977 16.6665 25.0001 16.6665C29.6025 16.6669 33.3333 20.3977 33.3333 24.9997C33.3333 29.6021 29.6021 33.3333 24.9997 33.3333Z" fill="#858585"/>
<path d="M41.3449 11.655C41.3449 13.3118 40.0017 14.6549 38.345 14.6549C36.6879 14.6549 35.3447 13.3118 35.3447 11.655C35.3447 9.99794 36.6879 8.65479 38.345 8.65479C40.0017 8.65479 41.3449 9.99794 41.3449 11.655Z" fill="#858585"/>
</svg>
