<svg width="50" height="51" viewBox="0 0 50 51" fill="none" xmlns="http://www.w3.org/2000/svg">
<g clip-path="url(#clip0)">
<path d="M49.8497 15.5677C49.728 12.9066 49.3053 11.0892 48.6874 9.49927C48.0598 7.8311 47.0757 6.3201 45.8038 5.07117C44.5553 3.79935 43.0439 2.81477 41.3757 2.18687C39.7854 1.56927 37.9684 1.14699 35.3073 1.02606C32.6412 0.903992 31.7894 0.875 25 0.875C18.2106 0.875 17.3588 0.903992 14.6927 1.0253C12.0316 1.14699 10.2146 1.56966 8.62427 2.18764C6.9561 2.81516 5.4451 3.79935 4.19617 5.07117C2.92435 6.31972 1.93977 7.83072 1.31187 9.49889C0.694275 11.0892 0.271988 12.9066 0.151062 15.5673C0.0289917 18.2338 0 19.0852 0 25.8746C0 32.6644 0.0289917 33.5162 0.151062 36.1823C0.272369 38.8431 0.695038 40.6604 1.31302 42.2507C1.94054 43.9185 2.92473 45.4299 4.19655 46.6785C5.4451 47.9503 6.95648 48.9345 8.62465 49.562C10.2146 50.1804 12.0319 50.6026 14.6931 50.7243C17.3595 50.846 18.211 50.8746 25.0004 50.8746C31.7898 50.8746 32.6416 50.846 35.3077 50.7243C37.9688 50.6026 39.7858 50.1804 41.3761 49.562C44.7342 48.2635 47.3888 45.6088 48.6874 42.2507C49.3057 40.6604 49.728 38.8431 49.8497 36.1823C49.971 33.5158 50 32.6644 50 25.875C50 19.0852 49.971 18.2338 49.8497 15.5677ZM45.3495 35.9775C45.2385 38.4151 44.8311 39.7388 44.4889 40.6196C43.6478 42.8001 41.9247 44.5232 39.7442 45.3643C38.8634 45.7065 37.5397 46.1139 35.1021 46.2249C32.4665 46.3454 31.6757 46.3706 25 46.3706C18.3239 46.3706 17.5335 46.3454 14.8975 46.2249C12.4603 46.1139 11.1366 45.7065 10.2554 45.3643C9.16977 44.9634 8.18748 44.3244 7.38106 43.4939C6.5506 42.6875 5.91164 41.7056 5.51071 40.6196C5.16853 39.7388 4.76112 38.4151 4.65012 35.9775C4.52995 33.3415 4.50439 32.5507 4.50439 25.8754C4.50439 19.1997 4.52995 18.4093 4.65012 15.7729C4.76151 13.3353 5.16853 12.0116 5.51071 11.1308C5.91164 10.0448 6.55098 9.06249 7.38106 8.25606C8.18748 7.4256 9.16977 6.78664 10.2558 6.38609C11.1366 6.04353 12.4603 5.63651 14.8979 5.52512C17.5339 5.40495 18.3247 5.3794 25 5.3794H24.9996C31.675 5.3794 32.4657 5.40495 35.1021 5.5255C37.5397 5.63651 38.863 6.04392 39.7442 6.38609C40.8298 6.78702 41.8121 7.42598 42.6186 8.25606C43.449 9.06249 44.088 10.0448 44.4885 11.1308C44.8311 12.0116 45.2385 13.3353 45.3495 15.7729C45.4697 18.4089 45.4952 19.1997 45.4952 25.875C45.4952 32.5507 45.47 33.3411 45.3495 35.9775Z" fill="#FF0100"/>
<path d="M24.9997 13.0371C17.9097 13.0371 12.1621 18.7851 12.1621 25.8751C12.1621 32.9651 17.9097 38.7127 24.9997 38.7127C32.0901 38.7127 37.8377 32.9651 37.8377 25.8751C37.8377 18.7851 32.0901 13.0371 24.9997 13.0371ZM24.9997 34.2083C20.3977 34.2079 16.6665 30.4771 16.6669 25.8747C16.6669 21.2727 20.3977 17.5415 25.0001 17.5415C29.6025 17.5419 33.3333 21.2727 33.3333 25.8747C33.3333 30.4771 29.6021 34.2083 24.9997 34.2083Z" fill="#FF0100"/>
<path d="M41.3449 12.53C41.3449 14.1868 40.0017 15.5299 38.345 15.5299C36.6879 15.5299 35.3447 14.1868 35.3447 12.53C35.3447 10.8729 36.6879 9.52979 38.345 9.52979C40.0017 9.52979 41.3449 10.8729 41.3449 12.53Z" fill="#FF0100"/>
</g>
<defs>
<clipPath id="clip0">
<rect width="50" height="50" fill="white" transform="translate(0 0.875)"/>
</clipPath>
</defs>
</svg>
