<svg width="87" height="40" viewBox="0 0 87 40" fill="none" xmlns="http://www.w3.org/2000/svg">
<rect y="0.0932312" width="87" height="39.8136" rx="8.84746" fill="url(#paint0_radial)"/>
<path d="M28.4556 22.1701H33.5007V24.0789H26.0796V12.5472H28.4556V22.1701Z" fill="white"/>
<path d="M34.364 19.7149C34.364 18.8648 34.5277 18.1071 34.855 17.4418C35.1824 16.7765 35.6523 16.2617 36.2648 15.8974C36.8826 15.5331 37.598 15.3509 38.4112 15.3509C39.5675 15.3509 40.51 15.7047 41.2386 16.4122C41.9726 17.1197 42.3818 18.0807 42.4663 19.2951L42.4821 19.8812C42.4821 21.1959 42.1151 22.252 41.3812 23.0492C40.6473 23.8413 39.6625 24.2373 38.427 24.2373C37.1915 24.2373 36.2041 23.8413 35.4649 23.0492C34.731 22.2572 34.364 21.1801 34.364 19.8179V19.7149ZM36.6529 19.8812C36.6529 20.6943 36.806 21.3174 37.1123 21.7504C37.4185 22.178 37.8568 22.3919 38.427 22.3919C38.9814 22.3919 39.4144 22.1807 39.7259 21.7583C40.0374 21.3306 40.1932 20.6495 40.1932 19.7149C40.1932 18.9176 40.0374 18.2998 39.7259 17.8616C39.4144 17.4233 38.9761 17.2042 38.4112 17.2042C37.8515 17.2042 37.4185 17.4233 37.1123 17.8616C36.806 18.2946 36.6529 18.9678 36.6529 19.8812Z" fill="white"/>
<path d="M43.5592 19.7307C43.5592 18.416 43.8707 17.3573 44.4938 16.5548C45.1221 15.7522 45.9669 15.3509 47.0282 15.3509C47.9681 15.3509 48.6994 15.673 49.2221 16.3172L49.3171 15.5093H51.3922V23.7937C51.3922 24.5435 51.2206 25.1956 50.8774 25.75C50.5395 26.3044 50.0616 26.7268 49.4439 27.0172C48.8261 27.3076 48.1027 27.4528 47.2737 27.4528C46.6454 27.4528 46.0329 27.3261 45.4363 27.0727C44.8396 26.8245 44.3882 26.5024 44.082 26.1064L45.0957 24.7125C45.666 25.3514 46.3577 25.6708 47.1708 25.6708C47.778 25.6708 48.2506 25.5071 48.5885 25.1798C48.9264 24.8577 49.0954 24.3983 49.0954 23.8017V23.3423C48.5674 23.9389 47.873 24.2373 47.0124 24.2373C45.9828 24.2373 45.1485 23.836 44.5096 23.0334C43.876 22.2256 43.5592 21.1563 43.5592 19.8258V19.7307ZM45.8481 19.8971C45.8481 20.6732 46.0039 21.2831 46.3154 21.7266C46.6269 22.1648 47.0546 22.384 47.5985 22.384C48.2954 22.384 48.7944 22.1226 49.0954 21.5999V17.9962C48.7891 17.4735 48.2954 17.2121 47.6143 17.2121C47.0652 17.2121 46.6322 17.4365 46.3154 17.8854C46.0039 18.3342 45.8481 19.0047 45.8481 19.8971Z" fill="white"/>
<path d="M52.802 19.7149C52.802 18.8648 52.9656 18.1071 53.293 17.4418C53.6204 16.7765 54.0903 16.2617 54.7028 15.8974C55.3206 15.5331 56.036 15.3509 56.8491 15.3509C58.0055 15.3509 58.948 15.7047 59.6766 16.4122C60.4105 17.1197 60.8197 18.0807 60.9042 19.2951L60.9201 19.8812C60.9201 21.1959 60.5531 22.252 59.8192 23.0492C59.0852 23.8413 58.1005 24.2373 56.865 24.2373C55.6294 24.2373 54.6421 23.8413 53.9029 23.0492C53.1689 22.2572 52.802 21.1801 52.802 19.8179V19.7149ZM55.0909 19.8812C55.0909 20.6943 55.244 21.3174 55.5502 21.7504C55.8565 22.178 56.2947 22.3919 56.865 22.3919C57.4194 22.3919 57.8523 22.1807 58.1639 21.7583C58.4754 21.3306 58.6312 20.6495 58.6312 19.7149C58.6312 18.9176 58.4754 18.2998 58.1639 17.8616C57.8523 17.4233 57.4141 17.2042 56.8491 17.2042C56.2894 17.2042 55.8565 17.4233 55.5502 17.8616C55.244 18.2946 55.0909 18.9678 55.0909 19.8812Z" fill="white"/>
<defs>
<radialGradient id="paint0_radial" cx="0" cy="0" r="1" gradientUnits="userSpaceOnUse" gradientTransform="translate(15.483 -16.1271) rotate(50.3431) scale(72.7827 159.044)">
<stop stop-color="#71CCFF"/>
<stop offset="1" stop-color="#ADFFC7"/>
</radialGradient>
</defs>
</svg>
