<svg width="24" height="24" viewBox="0 0 24 24" fill="none" xmlns="http://www.w3.org/2000/svg">
<path fill-rule="evenodd" clip-rule="evenodd" d="M12.9732 22.3819C15.3952 20.7589 21.5 16.1114 21.5 10.5C21.5 5.25329 17.2467 1 12 1C6.75329 1 2.5 5.25329 2.5 10.5C2.5 16.1114 8.60477 20.7589 11.0268 22.3819C11.6218 22.7806 12.3782 22.7806 12.9732 22.3819ZM12 13.5C13.6569 13.5 15 12.1569 15 10.5C15 8.84315 13.6569 7.5 12 7.5C10.3431 7.5 9 8.84315 9 10.5C9 12.1569 10.3431 13.5 12 13.5Z" fill="#FF3A3A"/>
</svg>
