<svg width="48" height="49" viewBox="0 0 48 49" fill="none" xmlns="http://www.w3.org/2000/svg">
<g clip-path="url(#clip0)">
<path d="M24 48.875C37.2548 48.875 48 38.1298 48 24.875C48 11.6202 37.2548 0.875 24 0.875C10.7452 0.875 0 11.6202 0 24.875C0 38.1298 10.7452 48.875 24 48.875Z" fill="#37AEE2"/>
<path d="M8.93813 26.0488C11.7437 24.5035 14.8755 23.2136 17.8017 21.9172C22.8359 19.7938 27.8901 17.7072 32.9953 15.7646C33.9886 15.4337 35.7733 15.11 35.9483 16.582C35.8525 18.6656 35.4583 20.737 35.1879 22.8084C34.5016 27.3636 33.7084 31.9032 32.9349 36.4434C32.6684 37.9557 30.7739 38.7386 29.5617 37.7707C26.6485 35.803 23.7129 33.8543 20.8369 31.8409C19.8948 30.8837 20.7684 29.5089 21.6098 28.8253C24.0092 26.4607 26.5538 24.4517 28.8278 21.9649C29.4412 20.4837 27.6288 21.732 27.031 22.1146C23.7462 24.3782 20.5418 26.78 17.0786 28.7694C15.3096 29.7431 13.2478 28.911 11.4796 28.3676C9.89419 27.7112 7.57097 27.0499 8.93797 26.049L8.93813 26.0488Z" fill="white"/>
</g>
<defs>
<clipPath id="clip0">
<rect width="48" height="48" fill="white" transform="translate(0 0.875)"/>
</clipPath>
</defs>
</svg>
