<svg width="48" height="48" viewBox="0 0 48 48" fill="none" xmlns="http://www.w3.org/2000/svg">
<path d="M24 48C37.2548 48 48 37.2548 48 24C48 10.7452 37.2548 0 24 0C10.7452 0 0 10.7452 0 24C0 37.2548 10.7452 48 24 48Z" fill="#858585"/>
<path d="M8.93813 25.1738C11.7437 23.6285 14.8755 22.3386 17.8017 21.0422C22.8359 18.9188 27.8901 16.8322 32.9953 14.8896C33.9886 14.5587 35.7733 14.235 35.9483 15.707C35.8525 17.7906 35.4583 19.862 35.1879 21.9334C34.5016 26.4886 33.7084 31.0282 32.9349 35.5684C32.6684 37.0807 30.7739 37.8636 29.5617 36.8957C26.6485 34.928 23.7129 32.9793 20.8369 30.9659C19.8948 30.0087 20.7684 28.6339 21.6098 27.9503C24.0092 25.5857 26.5538 23.5767 28.8278 21.0899C29.4412 19.6087 27.6288 20.857 27.031 21.2396C23.7462 23.5032 20.5418 25.905 17.0786 27.8944C15.3096 28.8681 13.2478 28.036 11.4796 27.4926C9.89419 26.8362 7.57097 26.1749 8.93797 25.174L8.93813 25.1738Z" fill="white"/>
</svg>
